<svg width="41" height="41" viewBox="0 0 41 41" fill="none" xmlns="http://www.w3.org/2000/svg">
<path fill-rule="evenodd" clip-rule="evenodd" d="M9.55566 37.2963C12.8447 39.4939 16.7115 40.6669 20.6671 40.6669C25.9715 40.6669 31.0586 38.5598 34.8094 34.809C38.5601 31.0583 40.6673 25.9711 40.6673 20.6668C40.6673 16.7111 39.4943 12.8443 37.2967 9.55529C35.099 6.26629 31.9754 3.70282 28.3209 2.18906C24.6663 0.675292 20.645 0.279222 16.7653 1.05093C12.8857 1.82264 9.32198 3.72747 6.52491 6.52454C3.72784 9.32161 1.82301 12.8853 1.0513 16.7649C0.279588 20.6446 0.675658 24.666 2.18942 28.3205C3.70319 31.9751 6.26665 35.0986 9.55566 37.2963ZM10.9446 6.11596C13.8225 4.19302 17.2059 3.16665 20.6671 3.16665C25.3085 3.16665 29.7597 5.01041 33.0416 8.29232C36.3235 11.5742 38.1673 16.0255 38.1673 20.6668C38.1673 24.128 37.1409 27.5114 35.218 30.3893C33.295 33.2672 30.5619 35.5102 27.3642 36.8348C24.1664 38.1593 20.6477 38.5059 17.253 37.8306C13.8583 37.1554 10.7401 35.4887 8.29269 33.0412C5.84525 30.5938 4.17853 27.4756 3.50328 24.0809C2.82803 20.6862 3.17459 17.1675 4.49914 13.9698C5.82368 10.772 8.06672 8.03889 10.9446 6.11596ZM20.667 26.4295C20.3355 26.4295 20.0175 26.2978 19.7831 26.0634C19.5487 25.8289 19.417 25.511 19.417 25.1795V10.1794C19.417 9.84784 19.5487 9.5299 19.7831 9.29548C20.0175 9.06105 20.3355 8.92936 20.667 8.92936C20.9985 8.92936 21.3165 9.06105 21.5509 9.29548C21.7853 9.5299 21.917 9.84784 21.917 10.1794V25.1795C21.917 25.511 21.7853 25.8289 21.5509 26.0634C21.3165 26.2978 20.9985 26.4295 20.667 26.4295ZM20.6657 32.4044C21.5839 32.4044 22.3282 31.66 22.3282 30.7419C22.3282 29.8237 21.5839 29.0793 20.6657 29.0793C19.7475 29.0793 19.0032 29.8237 19.0032 30.7419C19.0032 31.66 19.7475 32.4044 20.6657 32.4044Z" fill="black"/>
</svg>
