<svg width="40" height="40" viewBox="0 0 40 40" fill="none" xmlns="http://www.w3.org/2000/svg">
<path fill-rule="evenodd" clip-rule="evenodd" d="M8.8886 3.37061C12.1776 1.17298 16.0444 0 20 0C25.3043 0 30.3914 2.10714 34.1421 5.85786C37.8929 9.60859 40 14.6957 40 20C40 23.9556 38.827 27.8224 36.6294 31.1114C34.4318 34.4004 31.3082 36.9638 27.6537 38.4776C23.9992 39.9913 19.9778 40.3874 16.0982 39.6157C12.2186 38.844 8.65492 36.9392 5.85787 34.1421C3.06082 31.3451 1.15601 27.7814 0.384303 23.9018C-0.387401 20.0222 0.00866564 16.0009 1.52242 12.3463C3.03617 8.69181 5.59962 5.56823 8.8886 3.37061ZM10.2775 34.5507C13.1554 36.4736 16.5388 37.5 20 37.5C24.6413 37.5 29.0925 35.6562 32.3744 32.3744C35.6563 29.0925 37.5 24.6413 37.5 20C37.5 16.5388 36.4736 13.1554 34.5507 10.2775C32.6278 7.39966 29.8947 5.15664 26.697 3.83211C23.4993 2.50757 19.9806 2.16102 16.5859 2.83626C13.1913 3.5115 10.0731 5.17821 7.62564 7.62563C5.17822 10.073 3.51151 13.1912 2.83627 16.5859C2.16103 19.9806 2.50758 23.4993 3.83212 26.697C5.15665 29.8947 7.39967 32.6278 10.2775 34.5507ZM31.617 12.2615C31.9472 12.2615 32.264 12.3922 32.4982 12.625C32.6154 12.7412 32.7084 12.8794 32.7718 13.0317C32.8353 13.1841 32.868 13.3475 32.868 13.5125C32.868 13.6775 32.8353 13.8409 32.7718 13.9932C32.7084 14.1455 32.6154 14.2838 32.4982 14.4L16.8607 30L7.49821 20.6625C7.26946 20.4155 7.1482 20.0877 7.16109 19.7514C7.17398 19.415 7.31998 19.0975 7.56696 18.8687C7.81394 18.64 8.14168 18.5187 8.47807 18.5316C8.81447 18.5445 9.13196 18.6905 9.36071 18.9375L16.8607 26.4375L30.7357 12.625C30.9699 12.3922 31.2867 12.2615 31.617 12.2615Z" fill="black"/>
</svg>
