<svg width="10" height="10" viewBox="0 0 10 10" fill="none" xmlns="http://www.w3.org/2000/svg">
<path fill-rule="evenodd" clip-rule="evenodd" d="M4.75 9.49999H5.25C7.1355 9.49999 8.0785 9.49999 8.664 8.91399C9.25 8.32849 9.25 7.38549 9.25 5.49999V2.49899C9.1775 2.49999 9.075 2.49999 9 2.49999H1C0.925 2.49999 0.8225 2.49999 0.75 2.49899V5.49999C0.75 7.38549 0.75 8.32849 1.336 8.91399C1.9215 9.49999 2.8645 9.49999 4.75 9.49999ZM3.538 4.55849C3.5 4.65049 3.5 4.76699 3.5 4.99999C3.5 5.23299 3.5 5.34949 3.538 5.44149C3.58885 5.56376 3.68614 5.66086 3.8085 5.71149C3.9005 5.74999 4.017 5.74999 4.25 5.74999H5.75C5.983 5.74999 6.0995 5.74999 6.1915 5.71199C6.31377 5.66114 6.41087 5.56386 6.4615 5.44149C6.5 5.34949 6.5 5.23299 6.5 4.99999C6.5 4.76699 6.5 4.65049 6.462 4.55849C6.41115 4.43622 6.31386 4.33912 6.1915 4.28849C6.0995 4.24999 5.983 4.24999 5.75 4.24999H4.25C4.017 4.24999 3.9005 4.24999 3.8085 4.28799C3.68623 4.33885 3.58863 4.43613 3.538 4.55849Z" fill="black"/>
<path opacity="0.5" d="M0 1.5C0 1.0285 -1.49012e-08 0.793 0.1465 0.6465C0.293 0.5 0.5285 0.5 1 0.5H9C9.4715 0.5 9.707 0.5 9.8535 0.6465C10 0.793 10 1.0285 10 1.5C10 1.9715 10 2.207 9.8535 2.3535C9.707 2.5 9.4715 2.5 9 2.5H1C0.5285 2.5 0.293 2.5 0.1465 2.3535C-1.49012e-08 2.207 0 1.9715 0 1.5Z" fill="black"/>
</svg>
