<svg width="17" height="16" viewBox="0 0 17 16" fill="none" xmlns="http://www.w3.org/2000/svg">
<path fill-rule="evenodd" clip-rule="evenodd" d="M16.2793 12.5868C16.2793 13.001 15.9435 13.3368 15.5293 13.3368L11.3526 13.3368L12.1331 14.2734C12.3983 14.5916 12.3553 15.0645 12.0371 15.3297C11.7189 15.5949 11.2459 15.5519 10.9808 15.2337L9.17516 13.0669C8.94338 12.7888 8.94338 12.3848 9.17516 12.1067L10.9808 9.93992C11.2459 9.62172 11.7189 9.57872 12.0371 9.8439C12.3553 10.1091 12.3983 10.582 12.1331 10.9002L11.3526 11.8368L15.5293 11.8368C15.9435 11.8368 16.2793 12.1726 16.2793 12.5868Z" fill="black"/>
<path fill-rule="evenodd" clip-rule="evenodd" d="M12.0131 1.93325C11.4197 1.33851 10.2954 1.31778 9.49367 2.12284L6.47699 5.15072C5.67412 5.95647 5.69371 7.09076 6.28853 7.68795C6.58084 7.98142 6.5799 8.4563 6.28642 8.74861C5.99295 9.04092 5.51807 9.03997 5.22576 8.7465C3.94644 7.46208 4.1353 5.37572 5.41437 4.09203C5.41438 4.09202 5.41436 4.09204 5.41437 4.09203L8.4308 1.0644C8.43084 1.06436 8.43076 1.06443 8.4308 1.0644C9.71097 -0.221021 11.7934 -0.411168 13.0754 0.874215C14.3548 2.15871 14.1661 4.24536 12.8873 5.52953L11.3789 7.04354C11.0865 7.33697 10.6117 7.33785 10.3182 7.0455C10.0248 6.75315 10.0239 6.27828 10.3163 5.98484L11.8244 4.47109C11.8245 4.47105 11.8244 4.47113 11.8244 4.47109C12.6274 3.66465 12.6077 2.53037 12.0131 1.93325Z" fill="black"/>
<path fill-rule="evenodd" clip-rule="evenodd" d="M7.65946 5.19689C7.95293 4.90458 8.42781 4.90552 8.72012 5.199C9.99944 6.48341 9.81058 8.56978 8.53151 9.85347C8.5315 9.85348 8.53152 9.85346 8.53151 9.85347L5.51508 12.8811C5.51504 12.8811 5.51512 12.8811 5.51508 12.8811C4.23491 14.1665 2.15243 14.3567 0.870452 13.0713C-0.408943 11.7868 -0.220242 9.70014 1.05858 8.41596L2.56698 6.90196C2.85933 6.60852 3.33421 6.60764 3.62764 6.89999C3.92108 7.19234 3.92196 7.66722 3.62961 7.96065L2.12146 9.47441C2.12141 9.47445 2.1215 9.47436 2.12146 9.47441C1.31859 10.2807 1.33814 11.4148 1.93252 12.012C2.52589 12.607 3.6504 12.6278 4.45221 11.8227L7.46889 8.79477C8.27176 7.98902 8.25217 6.85473 7.65735 6.25755C7.36504 5.96407 7.36598 5.4892 7.65946 5.19689Z" fill="black"/>
</svg>
