<svg width="12" height="12" viewBox="0 0 12 12" fill="none" xmlns="http://www.w3.org/2000/svg">
<path fill-rule="evenodd" clip-rule="evenodd" d="M0 6C0 9.3138 2.6862 12 6 12C9.3138 12 12 9.3138 12 6C12 2.6862 9.3138 0 6 0C2.6862 0 0 2.6862 0 6ZM6.84835 5.99995L8.54575 4.30315C8.65834 4.19057 8.72159 4.03787 8.72159 3.87865C8.72159 3.71944 8.65834 3.56674 8.54575 3.45415C8.43317 3.34157 8.28047 3.27832 8.12125 3.27832C7.96204 3.27832 7.80934 3.34157 7.69675 3.45415L5.99995 5.15155L4.30315 3.45415C4.19057 3.34157 4.03787 3.27832 3.87865 3.27832C3.71944 3.27832 3.56674 3.34157 3.45415 3.45415C3.34157 3.56674 3.27832 3.71944 3.27832 3.87865C3.27832 4.03787 3.34157 4.19057 3.45415 4.30315L5.15155 5.99995L3.45415 7.69675C3.34157 7.80934 3.27832 7.96204 3.27832 8.12125C3.27832 8.28047 3.34157 8.43317 3.45415 8.54575C3.56674 8.65834 3.71944 8.72159 3.87865 8.72159C4.03787 8.72159 4.19057 8.65834 4.30315 8.54575L5.99995 6.84835L7.69675 8.54575C7.80934 8.65834 7.96204 8.72159 8.12125 8.72159C8.28047 8.72159 8.43317 8.65834 8.54575 8.54575C8.65834 8.43317 8.72159 8.28047 8.72159 8.12125C8.72159 7.96204 8.65834 7.80934 8.54575 7.69675L6.84835 5.99995Z" fill="#585C60"/>
</svg>
