<svg width="22" height="24" viewBox="0 0 22 24" fill="none" xmlns="http://www.w3.org/2000/svg">
<path d="M0 5.42881C0 4.95481 0.399667 4.57201 0.892222 4.57201H6.74422C6.75156 3.56161 6.864 2.17802 7.88333 1.22042C8.723 0.434137 9.83967 -0.00312131 11 1.67747e-05C12.1603 -0.00312131 13.277 0.434137 14.1167 1.22042C15.136 2.17802 15.2484 3.56161 15.2558 4.57201H21.1078C21.6003 4.57201 22 4.95601 22 5.42881C21.9987 5.54259 21.9746 5.65501 21.9291 5.75965C21.8836 5.86428 21.8175 5.95909 21.7346 6.03865C21.6518 6.11822 21.5538 6.18098 21.4462 6.22335C21.3387 6.26572 21.2237 6.28688 21.1078 6.28561H0.892222C0.776336 6.28688 0.66133 6.26572 0.553773 6.22335C0.446215 6.18098 0.348212 6.11822 0.26536 6.03865C0.182508 5.95909 0.11643 5.86428 0.0708995 5.75965C0.0253687 5.65501 0.00127694 5.54259 0 5.42881Z" fill="black"/>
<path fill-rule="evenodd" clip-rule="evenodd" d="M11.4939 23.9999H10.5064C7.10494 23.9999 5.40483 23.9999 4.29872 22.9367C3.19334 21.8754 3.08031 20.1322 2.8545 16.6496L2.85405 16.6427L2.52772 11.6171C2.40428 9.7247 2.34317 8.7791 2.89805 8.1791C3.45172 7.5791 4.38916 7.5791 6.26283 7.5791H15.7375C17.6112 7.5791 18.5474 7.5791 19.1023 8.1791C19.6559 8.7779 19.5948 9.7247 19.4726 11.6171L19.1463 16.6427L19.1459 16.6489C18.92 20.1319 18.8071 21.8741 17.7028 22.9367C16.5955 23.9999 14.8954 23.9999 11.4939 23.9999ZM8.53033 12.4697C8.23744 12.1768 7.76256 12.1768 7.46967 12.4697C7.17678 12.7626 7.17678 13.2374 7.46967 13.5303L9.93934 16L7.46967 18.4697C7.17678 18.7626 7.17678 19.2374 7.46967 19.5303C7.76256 19.8232 8.23744 19.8232 8.53033 19.5303L11 17.0607L13.4697 19.5303C13.7626 19.8232 14.2374 19.8232 14.5303 19.5303C14.8232 19.2374 14.8232 18.7626 14.5303 18.4697L12.0607 16L14.5303 13.5303C14.8232 13.2374 14.8232 12.7626 14.5303 12.4697C14.2374 12.1768 13.7626 12.1768 13.4697 12.4697L11 14.9393L8.53033 12.4697Z" fill="black"/>
</svg>
