<svg width="22" height="24" viewBox="0 0 22 24" fill="none" xmlns="http://www.w3.org/2000/svg">
<path d="M0 5.42881C0 4.95481 0.399667 4.57201 0.892222 4.57201H6.74422C6.75156 3.56161 6.864 2.17802 7.88333 1.22042C8.723 0.434137 9.83967 -0.00312131 11 1.67747e-05C12.1603 -0.00312131 13.277 0.434137 14.1167 1.22042C15.136 2.17802 15.2484 3.56161 15.2558 4.57201H21.1078C21.6003 4.57201 22 4.95601 22 5.42881C21.9987 5.54259 21.9746 5.65501 21.9291 5.75965C21.8836 5.86428 21.8175 5.95909 21.7346 6.03865C21.6518 6.11822 21.5538 6.18098 21.4462 6.22335C21.3387 6.26572 21.2237 6.28688 21.1078 6.28561H0.892222C0.776336 6.28688 0.66133 6.26572 0.553773 6.22335C0.446215 6.18098 0.348212 6.11822 0.26536 6.03865C0.182508 5.95909 0.11643 5.86428 0.0708995 5.75965C0.0253687 5.65501 0.00127694 5.54259 0 5.42881Z" fill="black"/>
<path fill-rule="evenodd" clip-rule="evenodd" d="M11.4939 23.9999H10.5064C7.10494 23.9999 5.40483 23.9999 4.29872 22.9367C3.19334 21.8754 3.08031 20.1322 2.8545 16.6496L2.85405 16.6427L2.52772 11.6171C2.40428 9.7247 2.34317 8.7791 2.89805 8.1791C3.45172 7.5791 4.38916 7.5791 6.26283 7.5791H15.7375C17.6112 7.5791 18.5474 7.5791 19.1023 8.1791C19.6559 8.7779 19.5948 9.7247 19.4726 11.6171L19.1463 16.6427L19.1459 16.6489C18.92 20.1319 18.8071 21.8741 17.7028 22.9367C16.5955 23.9999 14.8954 23.9999 11.4939 23.9999ZM8.85596 12.2268C8.80585 11.706 8.35729 11.3256 7.85251 11.3784C7.35018 11.43 6.98229 11.8944 7.0324 12.4152L7.64351 18.7308C7.69362 19.2516 8.1434 19.6308 8.64696 19.5792C9.14929 19.5264 9.51718 19.062 9.46707 18.5424L8.85596 12.2268ZM14.9671 12.4152C15.0184 11.8944 14.6505 11.43 14.147 11.3784L14.1457 11.3772C13.6434 11.3256 13.1936 11.706 13.1435 12.2256L12.5324 18.5424C12.4823 19.0632 12.849 19.5264 13.3537 19.5792C13.8573 19.6308 14.3071 19.2516 14.356 18.7308L14.9671 12.4152Z" fill="black"/>
</svg>
