<svg width="10" height="10" viewBox="0 0 10 10" fill="none" xmlns="http://www.w3.org/2000/svg">
<path fill-rule="evenodd" clip-rule="evenodd" d="M1.9395 0.4395C1.5 0.8785 1.5 1.586 1.5 3V7C1.5 8.414 1.5 9.1215 1.9395 9.5605C2.3785 10 3.086 10 4.5 10H5.5C6.914 10 7.6215 10 8.0605 9.5605C8.5 9.1215 8.5 8.414 8.5 7V3C8.5 1.586 8.5 0.8785 8.0605 0.4395C7.6215 -2.98023e-08 6.914 0 5.5 0H4.5C3.086 0 2.3785 -2.98023e-08 1.9395 0.4395ZM3.125 7.5C3.125 7.40054 3.16451 7.30516 3.23484 7.23483C3.30516 7.16451 3.40054 7.125 3.5 7.125H5C5.09946 7.125 5.19484 7.16451 5.26516 7.23483C5.33549 7.30516 5.375 7.40054 5.375 7.5C5.375 7.59946 5.33549 7.69484 5.26516 7.76517C5.19484 7.83549 5.09946 7.875 5 7.875H3.5C3.40054 7.875 3.30516 7.83549 3.23484 7.76517C3.16451 7.69484 3.125 7.59946 3.125 7.5ZM3.5 5.125C3.40054 5.125 3.30516 5.16451 3.23484 5.23484C3.16451 5.30516 3.125 5.40054 3.125 5.5C3.125 5.59946 3.16451 5.69484 3.23484 5.76516C3.30516 5.83549 3.40054 5.875 3.5 5.875H6.5C6.59946 5.875 6.69484 5.83549 6.76516 5.76516C6.83549 5.69484 6.875 5.59946 6.875 5.5C6.875 5.40054 6.83549 5.30516 6.76516 5.23484C6.69484 5.16451 6.59946 5.125 6.5 5.125H3.5ZM3.125 3.5C3.125 3.40054 3.16451 3.30516 3.23484 3.23484C3.30516 3.16451 3.40054 3.125 3.5 3.125H6.5C6.59946 3.125 6.69484 3.16451 6.76516 3.23484C6.83549 3.30516 6.875 3.40054 6.875 3.5C6.875 3.59946 6.83549 3.69484 6.76516 3.76516C6.69484 3.83549 6.59946 3.875 6.5 3.875H3.5C3.40054 3.875 3.30516 3.83549 3.23484 3.76516C3.16451 3.69484 3.125 3.59946 3.125 3.5Z" fill="black"/>
<path opacity="0.5" d="M1.6175 1.02899C1.5 1.47049 1.5 2.08849 1.5 2.99999V6.99999C1.5 7.91149 1.5 8.52899 1.6175 8.97099L1.5 8.96199C1.0125 8.91399 0.6845 8.80549 0.4395 8.56049C-2.98023e-08 8.12149 0 7.41399 0 5.99999V3.99999C0 2.58549 -2.98023e-08 1.87849 0.4395 1.43949C0.6845 1.19449 1.0125 1.08599 1.5 1.03799L1.6175 1.02899ZM8.3825 8.97099C8.5 8.52899 8.5 7.91099 8.5 6.99999V2.99999C8.5 2.08849 8.5 1.47049 8.3825 1.02899L8.5 1.03799C8.9875 1.08599 9.3155 1.19449 9.5605 1.43949C10 1.87849 10 2.58499 10 3.99949V5.99949C10 7.41449 10 8.12099 9.5605 8.56049C9.3155 8.80549 8.9875 8.91399 8.5 8.96199L8.3825 8.97099Z" fill="black"/>
</svg>
