<svg width="16" height="16" viewBox="0 0 16 16" fill="none" xmlns="http://www.w3.org/2000/svg">
<path fill-rule="evenodd" clip-rule="evenodd" d="M4 2C4 0.895431 4.89543 0 6 0H14C15.1046 0 16 0.895431 16 2V10C16 11.1046 15.1046 12 14 12H12V14C12 15.1046 11.1046 16 10 16H2C0.895431 16 0 15.1046 0 14V6C0 4.89543 0.895431 4 2 4H4V2ZM6 1.5H14C14.2761 1.5 14.5 1.72386 14.5 2V10C14.5 10.2761 14.2761 10.5 14 10.5H6C5.72386 10.5 5.5 10.2761 5.5 10V2C5.5 1.72386 5.72386 1.5 6 1.5ZM4 5.5H2C1.72386 5.5 1.5 5.72386 1.5 6V14C1.5 14.2761 1.72386 14.5 2 14.5H10C10.2761 14.5 10.5 14.2761 10.5 14V12H6C4.89543 12 4 11.1046 4 10V5.5Z" fill="black"/>
</svg>
