<svg width="10" height="10" viewBox="0 0 10 10" fill="none" xmlns="http://www.w3.org/2000/svg">
<path d="M4.70001 8.0806L8.39801 4.3826C7.77584 4.12284 7.21079 3.74331 6.73501 3.2656C6.25708 2.78971 5.87737 2.22449 5.61751 1.6021L1.91951 5.3001C1.63101 5.5886 1.48651 5.7331 1.36251 5.8921C1.21606 6.07974 1.09049 6.28277 0.98801 6.4976C0.90151 6.6796 0.837009 6.8736 0.708009 7.2606L0.0270095 9.3021C-0.00433366 9.39558 -0.00898388 9.49594 0.0135814 9.59191C0.0361466 9.68788 0.0850329 9.77566 0.154745 9.84537C0.224457 9.91508 0.312232 9.96397 0.408203 9.98653C0.504174 10.0091 0.604536 10.0044 0.698009 9.9731L2.73951 9.2921C3.12701 9.1631 3.32051 9.0986 3.50251 9.0121C3.71751 8.9096 3.92051 8.7841 4.10801 8.6376C4.26701 8.5136 4.41151 8.3691 4.70001 8.0806ZM9.42401 3.3566C9.79273 2.98789 9.99987 2.4878 9.99987 1.96635C9.99987 1.44491 9.79273 0.944822 9.42401 0.576105C9.05529 0.207387 8.5552 0.000244145 8.03376 0.000244141C7.51231 0.000244137 7.01223 0.207387 6.64351 0.576105L6.20001 1.0196L6.21901 1.0751C6.43756 1.70046 6.79522 2.26806 7.26501 2.7351C7.74602 3.21895 8.33349 3.58366 8.98051 3.8001L9.42401 3.3566Z" fill="black"/>
</svg>
