<svg width="10" height="10" viewBox="0 0 10 10" fill="none" xmlns="http://www.w3.org/2000/svg">
<path opacity="0.1" fill-rule="evenodd" clip-rule="evenodd" d="M5 1C3.93913 1 2.92172 1.42143 2.17157 2.17157C1.42143 2.92172 1 3.93913 1 5C1 6.06087 1.42143 7.07828 2.17157 7.82843C2.92172 8.57857 3.93913 9 5 9C6.06087 9 7.07828 8.57857 7.82843 7.82843C8.57857 7.07828 9 6.06087 9 5C9 3.93913 8.57857 2.92172 7.82843 2.17157C7.07828 1.42143 6.06087 1 5 1ZM0 5C0 2.2385 2.2385 0 5 0C7.7615 0 10 2.2385 10 5C10 7.7615 7.7615 10 5 10C2.2385 10 0 7.7615 0 5Z" fill="black"/>
<path fill-rule="evenodd" clip-rule="evenodd" d="M4.99926 1.00001C3.96796 0.997828 2.9761 1.39615 2.23276 2.11101C2.18535 2.15644 2.12946 2.1921 2.06827 2.21594C2.00708 2.23977 1.9418 2.25132 1.87615 2.24993C1.8105 2.24854 1.74576 2.23423 1.68564 2.20782C1.62552 2.18141 1.57119 2.14341 1.52576 2.09601C1.48032 2.0486 1.44466 1.99271 1.42083 1.93152C1.39699 1.87033 1.38544 1.80505 1.38683 1.7394C1.38822 1.67375 1.40253 1.60902 1.42894 1.5489C1.45536 1.48877 1.49335 1.43444 1.54076 1.38901C2.47029 0.495723 3.71007 -0.00219757 4.99926 7.29141e-06C5.13186 7.29141e-06 5.25904 0.0526857 5.35281 0.146454C5.44658 0.240222 5.49926 0.367399 5.49926 0.500007C5.49926 0.632616 5.44658 0.759792 5.35281 0.853561C5.25904 0.947329 5.13186 1.00001 4.99926 1.00001Z" fill="black"/>
</svg>
