<svg width="13" height="3" viewBox="0 0 13 3" fill="none" xmlns="http://www.w3.org/2000/svg">
<path d="M2.88889 1.5C2.88889 1.89782 2.73671 2.27936 2.46582 2.56066C2.19494 2.84196 1.82753 3 1.44444 3C1.06135 3 0.693954 2.84196 0.423068 2.56066C0.152182 2.27936 0 1.89782 0 1.5C0 1.10218 0.152182 0.720645 0.423068 0.43934C0.693954 0.158036 1.06135 0 1.44444 0C1.82753 0 2.19494 0.158036 2.46582 0.43934C2.73671 0.720645 2.88889 1.10218 2.88889 1.5ZM7.94444 1.5C7.94444 1.89782 7.79226 2.27936 7.52138 2.56066C7.25049 2.84196 6.88309 3 6.5 3C6.11691 3 5.74951 2.84196 5.47862 2.56066C5.20774 2.27936 5.05556 1.89782 5.05556 1.5C5.05556 1.10218 5.20774 0.720645 5.47862 0.43934C5.74951 0.158036 6.11691 0 6.5 0C6.88309 0 7.25049 0.158036 7.52138 0.43934C7.79226 0.720645 7.94444 1.10218 7.94444 1.5ZM13 1.5C13 1.89782 12.8478 2.27936 12.5769 2.56066C12.306 2.84196 11.9386 3 11.5556 3C11.1725 3 10.8051 2.84196 10.5342 2.56066C10.2633 2.27936 10.1111 1.89782 10.1111 1.5C10.1111 1.10218 10.2633 0.720645 10.5342 0.43934C10.8051 0.158036 11.1725 0 11.5556 0C11.9386 0 12.306 0.158036 12.5769 0.43934C12.8478 0.720645 13 1.10218 13 1.5Z" fill="black"/>
</svg>
