<svg width="17" height="16" viewBox="0 0 17 16" fill="none" xmlns="http://www.w3.org/2000/svg">
<path fill-rule="evenodd" clip-rule="evenodd" d="M12.2631 2.18264C11.6697 1.5879 10.5454 1.56717 9.74367 2.37223L6.72699 5.40011C5.92412 6.20586 5.94371 7.34015 6.53853 7.93734C6.83084 8.23081 6.8299 8.70569 6.53642 8.998C6.24295 9.29031 5.76807 9.28936 5.47576 8.99589C4.19644 7.71147 4.3853 5.62511 5.66437 4.34142L8.6808 1.31379C9.96097 0.0283687 12.0434 -0.161778 13.3254 1.1236C14.6048 2.4081 14.4161 4.49475 13.1373 5.77892L11.6289 7.29293C11.3365 7.58636 10.8617 7.58724 10.5682 7.29489C10.2748 7.00254 10.2739 6.52767 10.5663 6.23423L12.0744 4.72048C12.8774 3.91404 12.8577 2.77976 12.2631 2.18264ZM8.80664 12.6666C8.80664 13.0808 9.14243 13.4166 9.55664 13.4166L14.1778 13.4166L13.2584 14.5198C12.9932 14.838 13.0362 15.311 13.3544 15.5761C13.6726 15.8413 14.1456 15.7983 14.4107 15.4801L16.3552 13.1467C16.587 12.8686 16.587 12.4646 16.3552 12.1864L14.4107 9.85301C14.1456 9.5348 13.6726 9.49181 13.3544 9.75698C13.0362 10.0222 12.9932 10.4951 13.2584 10.8133L14.1778 11.9166L9.55664 11.9166C9.14243 11.9166 8.80664 12.2523 8.80664 12.6666ZM8.97012 5.44839C8.67781 5.15491 8.20293 5.15397 7.90946 5.44628C7.61598 5.73859 7.61504 6.21346 7.90735 6.50694C8.50217 7.10412 8.52176 8.23841 7.71889 9.04416L4.70221 12.072C3.9004 12.8772 2.77589 12.8564 2.18252 12.2614C1.58814 11.6642 1.56859 10.5301 2.37146 9.72379L3.87961 8.21004C4.17196 7.91661 4.17108 7.44173 3.87764 7.14938C3.58421 6.85703 3.10933 6.85791 2.81698 7.15135L1.30858 8.66535C0.029758 9.94953 -0.158943 12.0362 1.12045 13.3207C2.40243 14.606 4.48491 14.4159 5.76508 13.1305L8.78151 10.1029C10.0606 8.81917 10.2494 6.7328 8.97012 5.44839Z" fill="black"/>
</svg>
