<svg width="16" height="16" viewBox="0 0 16 16" fill="none" xmlns="http://www.w3.org/2000/svg">
<path d="M15.7507 0.0982124C15.9471 0.241067 16.0275 0.431539 15.9918 0.66963L13.7061 14.3837C13.6763 14.5563 13.5811 14.6902 13.4204 14.7854C13.337 14.8331 13.2448 14.8569 13.1436 14.8569C13.0781 14.8569 13.0067 14.842 12.9293 14.8122L8.88475 13.1605L6.72408 15.7943C6.61694 15.9312 6.47111 15.9997 6.28659 15.9997C6.20921 15.9997 6.14373 15.9878 6.09016 15.964C5.97707 15.9223 5.8863 15.8524 5.81785 15.7542C5.74939 15.656 5.71517 15.5473 5.71517 15.4283V12.3123L13.4293 2.85709L3.88485 11.1159L0.358128 9.66946C0.137894 9.58613 0.0188488 9.42244 0.000992045 9.1784C-0.0109125 8.94031 0.0843238 8.76471 0.286701 8.65162L15.1436 0.0803556C15.2328 0.0267852 15.3281 0 15.4293 0C15.5483 0 15.6555 0.0327375 15.7507 0.0982124Z" fill="black"/>
</svg>
