<svg width="15" height="16" viewBox="0 0 15 16" fill="none" xmlns="http://www.w3.org/2000/svg">
<path d="M9.51054 4.62881C9.40589 4.52428 9.26403 4.46558 9.11612 4.46558C8.96821 4.46558 8.82635 4.52428 8.7217 4.62881L6.86124 6.48927C6.8064 6.54037 6.76242 6.60199 6.73191 6.67045C6.70141 6.73892 6.685 6.81282 6.68368 6.88777C6.68236 6.96271 6.69614 7.03715 6.72422 7.10665C6.75229 7.17614 6.79407 7.23928 6.84707 7.29228C6.90007 7.34528 6.9632 7.38706 7.0327 7.41513C7.1022 7.4432 7.17664 7.45699 7.25158 7.45567C7.32652 7.45434 7.40043 7.43794 7.46889 7.40743C7.53736 7.37693 7.59898 7.33294 7.65007 7.27811L8.55798 6.3702V10.9767C8.55798 11.1247 8.61679 11.2667 8.72146 11.3714C8.82613 11.476 8.96809 11.5349 9.11612 11.5349C9.26415 11.5349 9.40611 11.476 9.51079 11.3714C9.61546 11.2667 9.67426 11.1247 9.67426 10.9767V6.3702L10.5822 7.27811C10.6333 7.33294 10.6949 7.37693 10.7633 7.40743C10.8318 7.43794 10.9057 7.45434 10.9807 7.45567C11.0556 7.45699 11.13 7.4432 11.1995 7.41513C11.269 7.38706 11.3322 7.34528 11.3852 7.29228C11.4382 7.23928 11.48 7.17614 11.508 7.10665C11.5361 7.03715 11.5499 6.96271 11.5486 6.88777C11.5472 6.81282 11.5308 6.73892 11.5003 6.67045C11.4698 6.60199 11.4258 6.54037 11.371 6.48927L9.51054 4.62881Z" fill="black"/>
<path fill-rule="evenodd" clip-rule="evenodd" d="M8.70326 0H9.5293C10.5466 0 11.3674 -1.10892e-08 12.0127 0.0870698C12.6824 0.176372 13.2465 0.36986 13.6945 0.817116C14.1425 1.26512 14.3345 1.82921 14.4253 2.49898C14.5116 3.14419 14.5116 3.96502 14.5116 4.98233V11.0177C14.5116 12.035 14.5116 12.8558 14.4253 13.501C14.3345 14.1708 14.1425 14.7349 13.6945 15.1829C13.2465 15.6309 12.6824 15.8229 12.0127 15.9137C11.3674 16 10.5466 16 9.5293 16H8.70326C7.68595 16 6.86512 16 6.21991 15.9137C5.55014 15.8229 4.98605 15.6309 4.53805 15.1829C4.24037 14.8852 4.05581 14.5362 3.93898 14.1395C3.23126 14.1388 2.64112 14.1306 2.16335 14.0666C1.59479 13.99 1.10214 13.8247 0.708465 13.4311C0.314791 13.0374 0.149581 12.5455 0.0729303 11.9762C3.88123e-08 11.4329 0 10.7438 0 9.89991V6.10009C0 5.25693 3.88123e-08 4.56856 0.0729303 4.02381C0.149581 3.456 0.314791 2.96335 0.708465 2.56967C1.10214 2.176 1.59405 2.01079 2.16335 1.93414C2.64112 1.87014 3.23126 1.86195 3.93898 1.86121C4.05581 1.46456 4.24112 1.11553 4.53805 0.81786C4.98605 0.36986 5.55014 0.17786 6.21991 0.087814C6.86512 0.00074421 7.68595 0.000744221 8.70326 0.000744221V0ZM3.72093 11.0177C3.72093 11.7991 3.72093 12.4636 3.76037 13.0225C3.13898 13.0203 2.67758 13.0091 2.31219 12.96C1.86716 12.9005 1.64986 12.7933 1.49805 12.6415C1.34623 12.4904 1.23907 12.2724 1.17954 11.8273C1.11777 11.3667 1.11628 10.7535 1.11628 9.86047V6.13953C1.11628 5.24651 1.11777 4.6333 1.17954 4.17265C1.23907 3.72763 1.34623 3.51033 1.49805 3.35851C1.64912 3.2067 1.86716 3.09953 2.31219 3.04C2.67758 2.99088 3.13898 2.98047 3.76037 2.97749C3.72093 3.53488 3.72093 4.20093 3.72093 4.98233V11.0177ZM6.36874 1.19293C5.82251 1.2666 5.53377 1.4013 5.32763 1.6067C5.12149 1.81284 4.98754 2.10158 4.91386 2.64856C4.8387 3.20893 4.83721 3.9546 4.83721 5.02326V10.9767C4.83721 12.0447 4.8387 12.7896 4.91386 13.3522C4.98754 13.8984 5.12223 14.1872 5.32763 14.3933C5.53377 14.5994 5.82251 14.7334 6.36949 14.8071C6.93135 14.8822 7.67628 14.8837 8.74419 14.8837H9.48837C10.5563 14.8837 11.3012 14.8822 11.8638 14.8071C12.41 14.7334 12.6988 14.5987 12.9049 14.3933C13.1111 14.1872 13.245 13.8984 13.3187 13.3514C13.3939 12.7896 13.3953 12.0447 13.3953 10.9767V5.02326C13.3953 3.95535 13.3939 3.20967 13.3187 2.64781C13.245 2.10158 13.1103 1.81284 12.9049 1.6067C12.6988 1.40056 12.41 1.2666 11.8631 1.19293C11.3012 1.11777 10.5563 1.11628 9.48837 1.11628H8.74419C7.67628 1.11628 6.9306 1.11777 6.36874 1.19293Z" fill="black"/>
</svg>
