<svg width="22" height="24" viewBox="0 0 22 24" fill="none" xmlns="http://www.w3.org/2000/svg">
<path d="M0 5.42881C0 4.95481 0.399667 4.57201 0.892222 4.57201H6.74422C6.75156 3.56161 6.864 2.17802 7.88333 1.22042C8.723 0.434137 9.83967 -0.00312131 11 1.67747e-05C12.1603 -0.00312131 13.277 0.434137 14.1167 1.22042C15.136 2.17802 15.2484 3.56161 15.2558 4.57201H21.1078C21.6003 4.57201 22 4.95601 22 5.42881C21.9987 5.54259 21.9746 5.65501 21.9291 5.75965C21.8836 5.86428 21.8175 5.95909 21.7346 6.03865C21.6518 6.11822 21.5538 6.18098 21.4462 6.22335C21.3387 6.26572 21.2237 6.28688 21.1078 6.28561H0.892222C0.776336 6.28688 0.66133 6.26572 0.553773 6.22335C0.446215 6.18098 0.348212 6.11822 0.26536 6.03865C0.182508 5.95909 0.11643 5.86428 0.0708995 5.75965C0.0253687 5.65501 0.00127694 5.54259 0 5.42881Z" fill="black"/>
<path fill-rule="evenodd" clip-rule="evenodd" d="M11.4939 23.9999H10.5064C7.10494 23.9999 5.40483 23.9999 4.29872 22.9367C3.19334 21.8754 3.08031 20.1322 2.8545 16.6496L2.85405 16.6427L2.52772 11.6171C2.40428 9.7247 2.34317 8.7791 2.89805 8.1791C3.45172 7.5791 4.38916 7.5791 6.26283 7.5791H15.7375C17.6112 7.5791 18.5474 7.5791 19.1023 8.1791C19.6559 8.7779 19.5948 9.7247 19.4726 11.6171L19.1463 16.6427L19.1459 16.6489C18.92 20.1319 18.8071 21.8741 17.7028 22.9367C16.5955 23.9999 14.8954 23.9999 11.4939 23.9999ZM11.5303 11.4697C11.2374 11.1768 10.7626 11.1768 10.4697 11.4697L6.96967 14.9697C6.67678 15.2626 6.67678 15.7374 6.96967 16.0303C7.26256 16.3232 7.73744 16.3232 8.03033 16.0303L10.25 13.8107V20C10.25 20.4142 10.5858 20.75 11 20.75C11.4142 20.75 11.75 20.4142 11.75 20V13.8107L13.9697 16.0303C14.2626 16.3232 14.7374 16.3232 15.0303 16.0303C15.3232 15.7374 15.3232 15.2626 15.0303 14.9697L11.5303 11.4697Z" fill="black"/>
</svg>
