<svg width="16" height="16" viewBox="0 0 16 16" fill="none" xmlns="http://www.w3.org/2000/svg">
<path d="M6.44335 4.99495e-08C7.66119 -0.000151547 8.85415 0.344771 9.88399 0.994799C10.9138 1.64483 11.7384 2.57335 12.2621 3.67278C12.7859 4.7722 12.9873 5.99753 12.8432 7.20676C12.699 8.41599 12.2152 9.55963 11.4477 10.5052L15.8032 14.8604C15.9228 14.9792 15.9929 15.1389 15.9995 15.3074C16.0061 15.4758 15.9486 15.6405 15.8386 15.7682C15.7287 15.896 15.5744 15.9774 15.4068 15.9959C15.2393 16.0145 15.0709 15.9689 14.9356 15.8684L14.861 15.8035L10.5046 11.4482C9.70363 12.0981 8.75836 12.5461 7.74824 12.7548C6.73811 12.9635 5.69265 12.9267 4.69971 12.6475C3.70677 12.3683 2.79536 11.8548 2.04208 11.1502C1.2888 10.4456 0.71566 9.57053 0.370819 8.59846C0.0259787 7.6264 -0.0804838 6.58577 0.060379 5.56402C0.201242 4.54227 0.585314 3.56925 1.18032 2.72675C1.77532 1.88425 2.56388 1.19687 3.47971 0.722378C4.39554 0.247891 5.41189 0.000158275 6.44335 4.99495e-08ZM6.44335 1.33325C5.77216 1.33325 5.10754 1.46545 4.48744 1.72229C3.86734 1.97913 3.30391 2.35559 2.82931 2.83017C2.3547 3.30476 1.97823 3.86817 1.72138 4.48824C1.46452 5.10831 1.33232 5.7729 1.33232 6.44406C1.33232 7.11522 1.46452 7.77981 1.72138 8.39988C1.97823 9.01995 2.3547 9.58336 2.82931 10.0579C3.30391 10.5325 3.86734 10.909 4.48744 11.1658C5.10754 11.4227 5.77216 11.5549 6.44335 11.5549C7.79887 11.5549 9.09888 11.0164 10.0574 10.0579C11.0159 9.09948 11.5544 7.79953 11.5544 6.44406C11.5544 5.08859 11.0159 3.78864 10.0574 2.83017C9.09888 1.87171 7.79887 1.33325 6.44335 1.33325Z" fill="black"/>
</svg>
