<svg width="16" height="16" viewBox="0 0 16 16" fill="none" xmlns="http://www.w3.org/2000/svg">
<path fill-rule="evenodd" clip-rule="evenodd" d="M7.5739 5.20935C6.83376 5.20935 6.12394 5.50337 5.60058 6.02673C5.07722 6.55008 4.7832 7.25991 4.7832 8.00005C4.7832 8.74019 5.07722 9.45001 5.60058 9.97337C6.12394 10.4967 6.83376 10.7907 7.5739 10.7907C8.31404 10.7907 9.02386 10.4967 9.54722 9.97337C10.0706 9.45001 10.3646 8.74019 10.3646 8.00005C10.3646 7.25991 10.0706 6.55008 9.54722 6.02673C9.02386 5.50337 8.31404 5.20935 7.5739 5.20935ZM5.89948 8.00005C5.89948 7.55596 6.07589 7.13007 6.38991 6.81606C6.70392 6.50204 7.12982 6.32563 7.5739 6.32563C8.01798 6.32563 8.44388 6.50204 8.75789 6.81606C9.07191 7.13007 9.24832 7.55596 9.24832 8.00005C9.24832 8.44413 9.07191 8.87003 8.75789 9.18404C8.44388 9.49806 8.01798 9.67447 7.5739 9.67447C7.12982 9.67447 6.70392 9.49806 6.38991 9.18404C6.07589 8.87003 5.89948 8.44413 5.89948 8.00005Z" fill="black"/>
<path fill-rule="evenodd" clip-rule="evenodd" d="M7.55608 0C7.22492 0 6.94883 -1.38615e-08 6.72259 0.0148837C6.49135 0.0245133 6.26328 0.0722886 6.04762 0.156279C5.79924 0.259043 5.57355 0.409729 5.38342 0.59973C5.19329 0.789731 5.04245 1.01532 4.93952 1.26363C4.83162 1.52409 4.80259 1.79944 4.79069 2.0986C4.7895 2.20802 4.76053 2.31533 4.70651 2.41048C4.65249 2.50564 4.57519 2.58551 4.48185 2.6426C4.38576 2.69507 4.27792 2.72226 4.16844 2.72161C4.05896 2.72095 3.95145 2.69249 3.85599 2.63888C3.59106 2.49898 3.33804 2.3866 3.05822 2.3494C2.79176 2.31435 2.52101 2.33212 2.26142 2.40171C2.00183 2.4713 1.75849 2.59134 1.54529 2.75498C1.36503 2.9 1.2099 3.07374 1.08613 3.26921C0.959617 3.45823 0.821199 3.69712 0.655989 3.98363L0.637385 4.01637C0.471431 4.30288 0.333757 4.54177 0.234036 4.74567C0.12985 4.95851 0.0479894 5.16837 0.0182219 5.40056C-0.0527732 5.9386 0.0928486 6.48281 0.423059 6.91349C0.594966 7.13749 0.818966 7.30047 1.07199 7.45972C1.16632 7.51549 1.24492 7.59434 1.30038 7.68886C1.35584 7.78338 1.38634 7.89045 1.38901 8C1.38634 8.10955 1.35584 8.21662 1.30038 8.31114C1.24492 8.40566 1.16632 8.48451 1.07199 8.54028C0.818966 8.69953 0.59571 8.86251 0.423059 9.08651C0.259425 9.29971 0.139386 9.54305 0.0697963 9.80264C0.000206465 10.0622 -0.0175714 10.333 0.0174778 10.5994C0.0479894 10.8316 0.129106 11.0415 0.233292 11.2543C0.333757 11.4582 0.471431 11.6971 0.637385 11.9836L0.655989 12.0164C0.821199 12.3029 0.959617 12.5418 1.08613 12.7308C1.21785 12.9265 1.35925 13.1029 1.54529 13.2443C1.75843 13.408 2.00175 13.5282 2.26134 13.5979C2.52093 13.6677 2.79171 13.6855 3.05822 13.6506C3.33804 13.6134 3.59106 13.5018 3.85599 13.3611C3.95133 13.3076 4.05872 13.2791 4.16807 13.2785C4.27741 13.2778 4.38513 13.305 4.48111 13.3574C4.57496 13.414 4.65275 13.4938 4.70707 13.589C4.76139 13.6842 4.79044 13.7918 4.79143 13.9014C4.80259 14.2006 4.83162 14.4759 4.94027 14.7364C5.04303 14.9847 5.19372 15.2104 5.38372 15.4006C5.57372 15.5907 5.79931 15.7415 6.04762 15.8445C6.26343 15.9338 6.48669 15.9687 6.72259 15.9844C6.94883 16 7.22492 16 7.55608 16H7.59329C7.92445 16 8.20055 16 8.42678 15.9851C8.66343 15.9687 8.88594 15.9338 9.10176 15.8437C9.35013 15.741 9.57582 15.5903 9.76595 15.4003C9.95608 15.2103 10.1069 14.9847 10.2098 14.7364C10.3178 14.4759 10.3468 14.2006 10.3587 13.9014C10.3598 13.7919 10.3887 13.6844 10.4427 13.5891C10.4967 13.4938 10.5741 13.4138 10.6675 13.3567C10.7637 13.3043 10.8716 13.2772 10.981 13.278C11.0905 13.2788 11.198 13.3074 11.2934 13.3611C11.5583 13.501 11.8113 13.6134 12.0912 13.6499C12.6292 13.7209 13.1734 13.5752 13.6041 13.245C13.7901 13.1021 13.9315 12.9265 14.0632 12.7308C14.1898 12.5418 14.3282 12.3029 14.4934 12.0164L14.512 11.9836C14.6779 11.6971 14.8156 11.4582 14.9153 11.2543C15.0195 11.0415 15.1014 10.8309 15.1312 10.5994C15.2021 10.0614 15.0565 9.51719 14.7263 9.08651C14.5544 8.86251 14.3304 8.69953 14.0774 8.54028C13.9831 8.48451 13.9045 8.40566 13.849 8.31114C13.7935 8.21662 13.763 8.10955 13.7604 8C13.7604 7.79312 13.8735 7.58772 14.0774 7.45972C14.3304 7.30047 14.5537 7.13749 14.7263 6.91349C14.8899 6.70029 15.01 6.45695 15.0796 6.19736C15.1492 5.93777 15.1669 5.66702 15.1319 5.40056C15.0965 5.17188 15.0236 4.95061 14.9161 4.74567C14.789 4.49842 14.6543 4.2552 14.512 4.01637L14.4934 3.98363C14.3574 3.74109 14.214 3.50283 14.0632 3.26921C13.9395 3.07395 13.7843 2.90045 13.6041 2.75572C13.3909 2.59196 13.1476 2.47178 12.888 2.40207C12.6284 2.33235 12.3577 2.31445 12.0912 2.3494C11.8113 2.3866 11.5583 2.49823 11.2934 2.63888C11.198 2.69236 11.0906 2.72075 10.9813 2.7214C10.872 2.72205 10.7643 2.69494 10.6683 2.6426C10.5747 2.58569 10.4971 2.50589 10.4428 2.41073C10.3885 2.31557 10.3593 2.20816 10.3579 2.0986C10.3468 1.79944 10.3178 1.52409 10.2091 1.26363C10.1063 1.01526 9.95565 0.78956 9.76565 0.599432C9.57565 0.409303 9.35006 0.258466 9.10176 0.155535C8.88594 0.0662326 8.66269 0.0312558 8.42678 0.0156279C8.20055 2.07923e-08 7.92445 0 7.59329 0H7.55608ZM6.47478 1.18698C6.53208 1.16316 6.61915 1.14158 6.7985 1.12893C6.98231 1.11628 7.22045 1.11628 7.57469 1.11628C7.92892 1.11628 8.16706 1.11628 8.35087 1.12893C8.53022 1.14158 8.61729 1.16316 8.67459 1.18698C8.90306 1.28149 9.0839 1.46233 9.17841 1.69079C9.20817 1.76223 9.23273 1.8746 9.24241 2.14028C9.26473 2.72967 9.56911 3.29749 10.1094 3.6093C10.6497 3.92186 11.2934 3.90102 11.8151 3.62567C12.0502 3.5014 12.1596 3.46642 12.237 3.45674C12.4815 3.42443 12.7289 3.49055 12.9246 3.64056C12.9738 3.67851 13.0363 3.74326 13.1367 3.89209C13.2402 4.0454 13.3592 4.25153 13.5364 4.55814C13.7135 4.86474 13.8318 5.07163 13.9129 5.23684C13.9925 5.39833 14.0171 5.48465 14.0245 5.54642C14.0569 5.79093 13.9907 6.03827 13.8407 6.23405C13.7931 6.29581 13.7083 6.37321 13.4835 6.5146C12.9834 6.82865 12.6441 7.37637 12.6441 8C12.6441 8.62363 12.9834 9.17135 13.4835 9.4854C13.7083 9.62679 13.7931 9.70419 13.8407 9.76595C13.9911 9.96167 14.0565 10.2087 14.0245 10.4536C14.0171 10.5153 13.9918 10.6024 13.9129 10.7632C13.8318 10.9291 13.7135 11.1353 13.5364 11.4419C13.3592 11.7485 13.2394 11.9546 13.1367 12.1079C13.0363 12.2567 12.9738 12.3215 12.9246 12.3594C12.7289 12.5094 12.4815 12.5756 12.237 12.5433C12.1596 12.5336 12.051 12.4986 11.8151 12.3743C11.2941 12.099 10.6497 12.0781 10.1094 12.39C9.56911 12.7025 9.26473 13.2703 9.24241 13.8597C9.23273 14.1254 9.20817 14.2378 9.17841 14.3092C9.13166 14.4222 9.0631 14.5248 8.97665 14.6113C8.8902 14.6977 8.78756 14.7663 8.67459 14.813C8.61729 14.8368 8.53022 14.8584 8.35087 14.8711C8.16706 14.8837 7.92892 14.8837 7.57469 14.8837C7.22045 14.8837 6.98231 14.8837 6.7985 14.8711C6.61915 14.8584 6.53208 14.8368 6.47478 14.813C6.36181 14.7663 6.25917 14.6977 6.17272 14.6113C6.08628 14.5248 6.01772 14.4222 5.97097 14.3092C5.9412 14.2378 5.91664 14.1254 5.90697 13.8597C5.88464 13.2703 5.58027 12.7025 5.03999 12.3907C4.49971 12.0781 3.85599 12.099 3.33431 12.3743C3.09915 12.4986 2.98976 12.5336 2.91236 12.5433C2.66785 12.5756 2.42051 12.5094 2.22473 12.3594C2.17562 12.3215 2.11311 12.2567 2.01264 12.1079C1.87267 11.89 1.7394 11.6679 1.61301 11.4419C1.4359 11.1353 1.31757 10.9284 1.23645 10.7632C1.15683 10.6017 1.13227 10.5153 1.12483 10.4536C1.09252 10.2091 1.15863 9.96173 1.30864 9.76595C1.35627 9.70419 1.44111 9.62679 1.66585 9.4854C2.16594 9.17135 2.50529 8.62363 2.50529 8C2.50529 7.37637 2.16594 6.82865 1.66585 6.5146C1.44111 6.37321 1.35627 6.29581 1.30864 6.23405C1.15863 6.03827 1.09252 5.79093 1.12483 5.54642C1.13227 5.48465 1.15757 5.39758 1.23645 5.23684C1.31757 5.07088 1.4359 4.86474 1.61301 4.55814C1.79013 4.25153 1.90994 4.0454 2.01264 3.89209C2.11311 3.74326 2.17562 3.67851 2.22473 3.64056C2.42051 3.49055 2.66785 3.42443 2.91236 3.45674C2.98976 3.46642 3.09841 3.5014 3.33431 3.62567C3.85525 3.90102 4.49971 3.92186 5.03999 3.6093C5.58027 3.29749 5.88464 2.72967 5.90697 2.14028C5.91664 1.8746 5.9412 1.76223 5.97097 1.69079C6.06548 1.46233 6.24631 1.28149 6.47478 1.18698Z" fill="black"/>
</svg>
