<svg width="10" height="10" viewBox="0 0 10 10" fill="none" xmlns="http://www.w3.org/2000/svg">
<path d="M0.5 2.26201C0.5 2.06451 0.6635 1.90501 0.865 1.90501H3.259C3.262 1.48401 3.308 0.907507 3.725 0.508507C4.0685 0.18089 4.52532 -0.00130055 5 6.98947e-06C5.47468 -0.00130055 5.9315 0.18089 6.275 0.508507C6.692 0.907507 6.738 1.48401 6.741 1.90501H9.135C9.3365 1.90501 9.5 2.06501 9.5 2.26201C9.49948 2.30942 9.48962 2.35626 9.471 2.39985C9.45237 2.44345 9.42534 2.48296 9.39144 2.51611C9.35755 2.54926 9.31746 2.57541 9.27346 2.59306C9.22946 2.61072 9.18241 2.61954 9.135 2.61901H0.865C0.817592 2.61954 0.770544 2.61072 0.726543 2.59306C0.682543 2.57541 0.64245 2.54926 0.608557 2.51611C0.574663 2.48296 0.547631 2.44345 0.529004 2.39985C0.510378 2.35626 0.500522 2.30942 0.5 2.26201Z" fill="black"/>
<path fill-rule="evenodd" clip-rule="evenodd" d="M4.79811 10H5.20211C6.59361 10 7.28911 10 7.74211 9.557C8.19411 9.114 8.24011 8.387 8.33261 6.934L8.46611 4.8405C8.51611 4.052 8.54111 3.6575 8.31461 3.4075C8.08761 3.1575 7.70461 3.1575 6.93811 3.1575H3.06211C2.29561 3.1575 1.91211 3.1575 1.68561 3.4075C1.45861 3.6575 1.48361 4.052 1.53411 4.8405L1.66761 6.9345C1.76011 8.3875 1.80611 9.1145 2.25861 9.557C2.71111 10 3.40661 10 4.79811 10ZM4.12311 5.094C4.10311 4.8775 3.91911 4.719 3.71311 4.7405C3.50661 4.7625 3.35661 4.9555 3.37711 5.173L3.62711 7.8045C3.64711 8.0215 3.83111 8.1795 4.03711 8.158C4.24361 8.136 4.39361 7.943 4.37311 7.726L4.12311 5.094ZM6.28761 4.7405C6.49361 4.7625 6.64411 4.9555 6.62311 5.173L6.37311 7.8045C6.35311 8.0215 6.16861 8.1795 5.96311 8.158C5.75661 8.136 5.60661 7.943 5.62711 7.726L5.87711 5.094C5.89711 4.8775 6.08211 4.719 6.28761 4.7405Z" fill="black"/>
</svg>
